<svg width="212" height="27" viewBox="0 0 212 27" fill="none" xmlns="http://www.w3.org/2000/svg">
<path d="M9.036 26.432C6.588 26.432 4.62 25.748 3.132 24.38C1.668 22.988 0.936 21.02 0.936 18.476H5.544C5.568 19.652 5.844 20.588 6.372 21.284C6.9 21.98 7.752 22.328 8.928 22.328C10.032 22.328 10.836 22.004 11.34 21.356C11.844 20.684 12.096 19.808 12.096 18.728V0.799998H16.704V18.728C16.704 21.2 16.008 23.108 14.616 24.452C13.248 25.772 11.388 26.432 9.036 26.432ZM30.0682 26.432C28.3402 26.432 26.7802 26.036 25.3882 25.244C24.0202 24.452 22.9282 23.36 22.1122 21.968C21.3202 20.552 20.9242 18.92 20.9242 17.072C20.9242 15.224 21.3322 13.604 22.1482 12.212C22.9642 10.796 24.0562 9.692 25.4242 8.9C26.8162 8.108 28.3762 7.712 30.1042 7.712C31.8082 7.712 33.3442 8.108 34.7122 8.9C36.1042 9.692 37.1962 10.796 37.9882 12.212C38.8042 13.604 39.2122 15.224 39.2122 17.072C39.2122 18.92 38.8042 20.552 37.9882 21.968C37.1962 23.36 36.1042 24.452 34.7122 25.244C33.3202 26.036 31.7722 26.432 30.0682 26.432ZM30.0682 22.436C31.2682 22.436 32.3122 21.992 33.2002 21.104C34.0882 20.192 34.5322 18.848 34.5322 17.072C34.5322 15.296 34.0882 13.964 33.2002 13.076C32.3122 12.164 31.2802 11.708 30.1042 11.708C28.8802 11.708 27.8242 12.164 26.9362 13.076C26.0722 13.964 25.6402 15.296 25.6402 17.072C25.6402 18.848 26.0722 20.192 26.9362 21.104C27.8242 21.992 28.8682 22.436 30.0682 22.436ZM43.3322 26V8.144H47.4362L47.8682 11.492C48.5162 10.34 49.3922 9.428 50.4962 8.756C51.6242 8.06 52.9442 7.712 54.4562 7.712V12.572H53.1602C52.1522 12.572 51.2522 12.728 50.4602 13.04C49.6682 13.352 49.0442 13.892 48.5882 14.66C48.1562 15.428 47.9402 16.496 47.9402 17.864V26H43.3322ZM65.4972 26.432C63.8172 26.432 62.3172 26.024 60.9972 25.208C59.6772 24.392 58.6332 23.276 57.8652 21.86C57.0972 20.444 56.7132 18.836 56.7132 17.036C56.7132 15.236 57.0972 13.64 57.8652 12.248C58.6332 10.832 59.6772 9.728 60.9972 8.936C62.3172 8.12 63.8172 7.712 65.4972 7.712C66.8412 7.712 68.0172 7.964 69.0252 8.468C70.0332 8.972 70.8492 9.68 71.4732 10.592V0.079999H76.0812V26H71.9772L71.4732 23.444C70.8972 24.236 70.1292 24.932 69.1692 25.532C68.2332 26.132 67.0092 26.432 65.4972 26.432ZM66.4692 22.4C67.9572 22.4 69.1692 21.908 70.1052 20.924C71.0652 19.916 71.5452 18.632 71.5452 17.072C71.5452 15.512 71.0652 14.24 70.1052 13.256C69.1692 12.248 67.9572 11.744 66.4692 11.744C65.0052 11.744 63.7932 12.236 62.8332 13.22C61.8732 14.204 61.3932 15.476 61.3932 17.036C61.3932 18.596 61.8732 19.88 62.8332 20.888C63.7932 21.896 65.0052 22.4 66.4692 22.4ZM86.9296 26.432C85.3936 26.432 84.1336 26.192 83.1496 25.712C82.1656 25.208 81.4336 24.548 80.9536 23.732C80.4736 22.916 80.2336 22.016 80.2336 21.032C80.2336 19.376 80.8816 18.032 82.1776 17C83.4736 15.968 85.4176 15.452 88.0096 15.452H92.5456V15.02C92.5456 13.796 92.1976 12.896 91.5016 12.32C90.8056 11.744 89.9416 11.456 88.9096 11.456C87.9736 11.456 87.1576 11.684 86.4616 12.14C85.7656 12.572 85.3336 13.22 85.1656 14.084H80.6656C80.7856 12.788 81.2176 11.66 81.9616 10.7C82.7296 9.74 83.7136 9.008 84.9136 8.504C86.1136 7.976 87.4576 7.712 88.9456 7.712C91.4896 7.712 93.4936 8.348 94.9576 9.62C96.4216 10.892 97.1536 12.692 97.1536 15.02V26H93.2296L92.7976 23.12C92.2696 24.08 91.5256 24.872 90.5656 25.496C89.6296 26.12 88.4176 26.432 86.9296 26.432ZM87.9736 22.832C89.2936 22.832 90.3136 22.4 91.0336 21.536C91.7776 20.672 92.2456 19.604 92.4376 18.332H88.5136C87.2896 18.332 86.4136 18.56 85.8856 19.016C85.3576 19.448 85.0936 19.988 85.0936 20.636C85.0936 21.332 85.3576 21.872 85.8856 22.256C86.4136 22.64 87.1096 22.832 87.9736 22.832ZM101.551 26V8.144H105.619L105.979 11.168C106.531 10.112 107.323 9.272 108.355 8.648C109.411 8.024 110.647 7.712 112.063 7.712C114.271 7.712 115.987 8.408 117.211 9.8C118.435 11.192 119.047 13.232 119.047 15.92V26H114.439V16.352C114.439 14.816 114.127 13.64 113.503 12.824C112.879 12.008 111.907 11.6 110.587 11.6C109.291 11.6 108.223 12.056 107.383 12.968C106.567 13.88 106.159 15.152 106.159 16.784V26H101.551ZM130.519 26L139.735 0.799998H144.919L154.135 26H149.239L147.223 20.168H137.395L135.343 26H130.519ZM138.655 16.568H145.963L142.291 6.092L138.655 16.568ZM157.274 26V0.079999H161.882V26H157.274ZM175.266 26.432C173.466 26.432 171.87 26.048 170.478 25.28C169.086 24.512 167.994 23.432 167.202 22.04C166.41 20.648 166.014 19.04 166.014 17.216C166.014 15.368 166.398 13.724 167.166 12.284C167.958 10.844 169.038 9.728 170.406 8.936C171.798 8.12 173.43 7.712 175.302 7.712C177.054 7.712 178.602 8.096 179.946 8.864C181.29 9.632 182.334 10.688 183.078 12.032C183.846 13.352 184.23 14.828 184.23 16.46C184.23 16.724 184.218 17 184.194 17.288C184.194 17.576 184.182 17.876 184.158 18.188H170.586C170.682 19.58 171.162 20.672 172.026 21.464C172.914 22.256 173.982 22.652 175.23 22.652C176.166 22.652 176.946 22.448 177.57 22.04C178.218 21.608 178.698 21.056 179.01 20.384H183.69C183.354 21.512 182.79 22.544 181.998 23.48C181.23 24.392 180.27 25.112 179.118 25.64C177.99 26.168 176.706 26.432 175.266 26.432ZM175.302 11.456C174.174 11.456 173.178 11.78 172.314 12.428C171.45 13.052 170.898 14.012 170.658 15.308H179.55C179.478 14.132 179.046 13.196 178.254 12.5C177.462 11.804 176.478 11.456 175.302 11.456ZM185.183 26L191.663 17.072L185.183 8.144H190.115L194.651 14.48L199.151 8.144H204.119L197.603 17.072L204.119 26H199.151L194.651 19.664L190.115 26H185.183ZM209.035 26.252C208.195 26.252 207.499 25.988 206.947 25.46C206.419 24.932 206.155 24.296 206.155 23.552C206.155 22.784 206.419 22.136 206.947 21.608C207.499 21.08 208.195 20.816 209.035 20.816C209.875 20.816 210.559 21.08 211.087 21.608C211.639 22.136 211.915 22.784 211.915 23.552C211.915 24.296 211.639 24.932 211.087 25.46C210.559 25.988 209.875 26.252 209.035 26.252Z" fill="white"/>
</svg>
